<svg xmlns="http://www.w3.org/2000/svg" width="99.875" height="25" fill="none" viewBox="0 0 99.875 25"><g><path fill-rule="evenodd" d="m14.412.162 4.779 5.666 1.115 10.47-8.436 8.865-9.814-8.894L6.997 3.695zM7.426 4.66l3.942 4.164-4.031 5.847-4.225.966zM3.29 16.37l7.492 6.79-3.436-7.717zm4.88-.928 3.797 8.528 7.14-7.503zm11.266-.227-.927-8.696-5.961 2.394zm-7.487-6.873 6.258-2.514-3.994-4.735-6.29 2.996zm-.033 1.014 6.916 6.328-10.594-.993z"/><path d="M50.253 19.81c-2.118 0-3.906-.687-5.336-2.09s-2.145-3.162-2.145-5.252.715-3.823 2.145-5.225c1.43-1.403 3.218-2.118 5.335-2.118 1.788 0 3.328.523 4.676 1.568a6.67 6.67 0 0 1 2.557 3.987h-2.502c-.743-1.953-2.53-3.272-4.73-3.272-1.458 0-2.64.494-3.603 1.457-.962.963-1.43 2.145-1.43 3.602 0 1.458.468 2.668 1.43 3.63.962.963 2.145 1.43 3.602 1.43 2.2 0 3.988-1.32 4.73-3.272h2.503c-.358 1.622-1.21 2.97-2.557 4.015-1.348 1.018-2.888 1.54-4.675 1.54M80.84 6.583c-.962-.963-2.227-1.458-3.794-1.458-2.338 0-4.043.963-5.06 2.915-.798-1.842-2.558-2.915-4.785-2.915-2.035 0-3.575.77-4.593 2.338V5.455h-2.365V19.48h2.365v-8.332c0-2.228 1.54-3.74 3.85-3.74 2.2 0 3.63 1.457 3.63 3.684v8.388h2.365v-8.332c0-2.228 1.54-3.74 3.85-3.74 2.2 0 3.63 1.457 3.63 3.684v8.388h2.365v-9.048c0-1.622-.495-2.887-1.457-3.85"/><path fill-rule="evenodd" d="M99.78 13.375c.025-.326.048-.629.048-.908 0-2.09-.715-3.822-2.145-5.225-1.403-1.402-3.19-2.117-5.308-2.117s-3.905.715-5.335 2.117c-1.402 1.403-2.117 3.135-2.117 5.225s.715 3.85 2.117 5.253c1.43 1.402 3.218 2.09 5.335 2.09 3.41 0 6.16-1.925 7.178-4.812H96.94c-.742 1.567-2.475 2.64-4.565 2.64-1.265 0-2.365-.386-3.272-1.155-.908-.77-1.458-1.788-1.65-3.026h12.32zm-2.482-2.035H87.48c.468-2.42 2.393-4.042 4.895-4.042 2.503 0 4.483 1.65 4.923 4.042M40.73 5.455H30.06v2.283h8.305v2.75h-4.18c-1.458 0-2.668.44-3.63 1.347-.962.88-1.43 1.98-1.43 3.3 0 1.348.468 2.448 1.43 3.355q1.443 1.32 3.63 1.32c1.898 0 3.547-.825 4.427-2.145v1.815h2.118zm-2.365 9.433c0 1.65-1.568 2.777-3.878 2.777-1.677 0-2.915-1.072-2.915-2.53 0-1.43 1.238-2.502 2.915-2.502h3.878z"/></g></svg>