<svg xmlns="http://www.w3.org/2000/svg" width="92.5" height="25" fill="none" viewBox="0 0 92.5 25"><g><path fill-rule="evenodd" d="M8.168 9.836a4.882 4.882 0 1 1 8.625.329L12.853 17l1.18 2.046 4.536-7.855a6.929 6.929 0 0 0-12-6.928 6.85 6.85 0 0 0-.583 5.636q.474-.06.953-.06zm15.893 3.975a6.85 6.85 0 0 0-4.66-3.336 8 8 0 0 1-.423.859l-.618 1.069a4.884 4.884 0 0 1 2.044 9.156 4.883 4.883 0 0 1-6.571-1.841l-3.934-6.813H7.538l4.522 7.835q.234.401.516.77l.038.049a6.84 6.84 0 0 0 5.446 2.645 6.928 6.928 0 0 0 6-10.393zM9.195 21.607a4.9 4.9 0 0 0 1.824-1.65L11.617 21q.249.43.553.821a6.84 6.84 0 0 1-5.231 2.383 6.93 6.93 0 1 1 0-13.856H16l-1.178 2.044H6.94a4.884 4.884 0 0 0-.141 9.765 4.9 4.9 0 0 0 2.397-.55"/><path d="m42.02 20.253-.36-1.71-.18-.068a.94.94 0 0 1-.517.157c-.36 0-.675-.202-1.057-.63l-3.24-3.802 4.455-4.793-.068-.157H38.42l-4.657 5.13V5.29l-.18-.135-2.272.337V20.5h2.452v-3.735l1.102-1.193 3.173 3.826c.675.832 1.53 1.372 2.61 1.372.563 0 .99-.135 1.282-.337z"/><path fill-rule="evenodd" d="M74.056 8.98c3.42 0 5.737 2.61 5.737 5.895s-2.318 5.895-5.738 5.895a5.4 5.4 0 0 1-3.915-1.642V20.5h-2.204V5.515l2.294-.338.158.113v5.108c.945-.878 2.205-1.418 3.667-1.418m-.293 9.653c2.115 0 3.51-1.665 3.51-3.758 0-2.07-1.395-3.758-3.51-3.758-1.98 0-3.555 1.305-3.555 3.758s1.575 3.758 3.555 3.758M92.053 18.565l.36 1.665-.09.157c-.315.226-.787.383-1.35.383-1.013 0-1.755-.54-2.047-1.462-.968.922-2.363 1.462-3.848 1.462-2.318 0-4.455-1.282-4.455-3.712 0-2.498 2.25-3.645 5.017-3.645 1.216 0 2.16.224 2.97.517v-.63c0-1.62-1.462-2.408-3.014-2.408-1.283 0-2.273.54-3.06 1.306h-.18l-1.238-1.17v-.18c1.215-1.17 2.767-1.868 4.703-1.868 2.43 0 5.197 1.08 5.197 4.32v4.342c0 .608.112.99.517.99a.58.58 0 0 0 .36-.135zm-3.442-2.138v-.832c-.586-.225-1.553-.518-2.656-.518-1.777 0-2.88.765-2.88 1.98 0 1.283 1.215 1.913 2.498 1.913 1.553 0 3.038-.967 3.038-2.543"/><path d="M65.722 13.728c0-2.813-1.823-4.748-4.68-4.748-1.508 0-2.79.54-3.668 1.418-.292-.9-.99-1.418-2.025-1.418-.585 0-1.08.158-1.395.383l-.09.157.36 1.665.158.067a.58.58 0 0 1 .36-.135c.427 0 .517.383.517.99V20.5h2.475v-6.57c0-1.71 1.148-2.835 2.835-2.835s2.7 1.125 2.7 2.835v6.57h2.453z"/><path fill-rule="evenodd" d="m53.252 18.565.36 1.665-.09.157c-.315.226-.787.383-1.35.383-1.012 0-1.755-.54-2.047-1.462-.968.922-2.363 1.462-3.848 1.462-2.317 0-4.455-1.282-4.455-3.712 0-2.498 2.25-3.645 5.018-3.645 1.215 0 2.16.224 2.97.517v-.63c0-1.62-1.463-2.408-3.015-2.408-1.283 0-2.273.54-3.06 1.306h-.18l-1.238-1.17v-.18c1.215-1.17 2.768-1.868 4.703-1.868 2.43 0 5.197 1.08 5.197 4.32v4.342c0 .608.113.99.518.99a.58.58 0 0 0 .36-.135zm-3.442-2.138v-.832c-.585-.225-1.553-.518-2.655-.518-1.778 0-2.88.765-2.88 1.98 0 1.283 1.215 1.913 2.497 1.913 1.553 0 3.038-.967 3.038-2.543"/></g></svg>