<svg xmlns="http://www.w3.org/2000/svg" width="106" height="25" fill="none" viewBox="0 0 106 25"><g><path d="M12.568 0C5.104 0 0 4.75 0 12.568 0 20.03 5.104 25 12.568 25S25 20.031 25 12.568C25 4.75 20.031 0 12.568 0m7.423 19.991a8.6 8.6 0 0 1-1.616 1.265V11l-2.25-1.25v12.5a11.7 11.7 0 0 1-2.5.456V6.27l-2.25-1.25v17.68A12 12 0 0 1 9 22.256V10.5l-2.25 1.25v9.524c-2.839-1.692-4.5-4.75-4.5-8.711 0-3.18.971-5.81 2.81-7.61C6.868 3.186 9.464 2.25 12.568 2.25s5.656.933 7.432 2.695c1.801 1.792 2.75 4.429 2.75 7.625 0 3.055-.954 5.618-2.759 7.421M78.244 7h2.498l-.023 11.25h-2.497zM79.481 4.862q-.607 0-1.057-.427a1.49 1.49 0 0 1-.428-1.058q0-.608.428-1.035.45-.427 1.057-.427.608 0 1.035.427.45.427.45 1.035t-.45 1.058a1.4 1.4 0 0 1-1.035.427M83.238 18.25h2.52v-5.873q0-1.597.698-2.452.697-.855 1.957-.832.743 0 1.283.292.562.293.855 1.035.315.72.315 2.07v5.76h2.52v-6.435q0-2.588-1.125-3.825-1.102-1.26-3.15-1.26-1.328 0-2.295.675a3.8 3.8 0 0 0-1.096 1.16L85.6 7h-2.362z"/><path fill-rule="evenodd" d="M97.582 17.778q1.282.742 2.925.742 1.282 0 2.272-.36a4.9 4.9 0 0 0 1.733-1.035q.743-.675 1.215-1.575l-2.318-.99a3.24 3.24 0 0 1-1.012 1.192q-.652.45-1.665.45a3.55 3.55 0 0 1-1.688-.405 3.2 3.2 0 0 1-1.192-1.215 3.6 3.6 0 0 1-.4-1.35h8.5q0-2.025-.72-3.487t-1.935-2.228q-1.192-.787-2.7-.787-1.665 0-2.97.765a5.37 5.37 0 0 0-2.025 2.07q-.743 1.327-.743 3.06t.72 3.06a5.6 5.6 0 0 0 2.003 2.092m5.599-6.548a4 4 0 0 0-.132-.405q-.338-.945-.99-1.395-.63-.473-1.552-.473-.968 0-1.665.428t-1.058 1.26a3.6 3.6 0 0 0-.199.585z"/><path d="M73.196 2.5v15.75h2.52V2.5z"/><path fill-rule="evenodd" d="m68.475 18.25-.09-1.68a4.3 4.3 0 0 1-1.147 1.23q-1.013.72-2.43.72-1.53 0-2.678-.72-1.125-.742-1.777-2.07-.63-1.328-.63-3.105 0-1.8.63-3.105.652-1.327 1.777-2.047 1.148-.743 2.678-.743 1.417 0 2.43.742.664.463 1.125 1.175V2.5h2.497v15.75zm-.495-3.758q.383-.81.383-1.867 0-1.058-.383-1.867-.36-.81-1.035-1.26-.653-.45-1.53-.45-.9 0-1.597.45-.698.45-1.103 1.26-.383.81-.405 1.867.023 1.058.405 1.867.405.81 1.103 1.283.72.45 1.62.45.855 0 1.507-.45.675-.472 1.035-1.283"/><path d="M55.485 2.5v15.75h2.52V2.5z"/><path fill-rule="evenodd" d="M48.036 18.52q-1.687 0-3.015-.742a5.5 5.5 0 0 1-2.047-2.093q-.743-1.327-.743-3.06 0-1.732.72-3.06A5.33 5.33 0 0 1 45 7.495q1.305-.765 2.992-.765t2.993.765a5.17 5.17 0 0 1 2.025 2.07q.742 1.328.742 3.06 0 1.733-.72 3.06a5.3 5.3 0 0 1-2.025 2.092q-1.305.743-2.97.743m0-2.317q.923 0 1.643-.45.72-.473 1.125-1.26.405-.81.405-1.868t-.427-1.845q-.406-.81-1.126-1.26-.72-.472-1.665-.472t-1.665.45-1.125 1.26-.405 1.867.405 1.867q.428.788 1.148 1.26.742.45 1.687.45M32.586 22.84q.968.203 2.16.203 1.732 0 3.037-.698 1.305-.675 2.025-2.025.72-1.328.72-3.24V7h-2.52v1.814a4.4 4.4 0 0 0-1.26-1.364q-1.013-.72-2.385-.72-1.53 0-2.677.72-1.125.72-1.778 2.003-.63 1.281-.63 3.037 0 1.643.63 2.903.653 1.238 1.778 1.935 1.147.697 2.677.697 1.372 0 2.385-.675.756-.51 1.26-1.307v1.105q0 1.26-.427 2.07-.428.81-1.193 1.192-.765.405-1.732.405-.9 0-1.62-.18t-1.26-.428q-.518-.225-.833-.382l-.967 2.025q.36.247 1.012.517.653.27 1.598.473m3.96-7.402q-.63.45-1.485.45-.9 0-1.598-.45a3.2 3.2 0 0 1-1.102-1.216q-.383-.786-.383-1.8 0-1.035.383-1.8.405-.787 1.08-1.214.697-.45 1.597-.45.855 0 1.508.45.652.428 1.012 1.215.36.765.36 1.8 0 1.012-.36 1.8-.36.764-1.012 1.214"/></g></svg>