<svg xmlns="http://www.w3.org/2000/svg" width="111.875" height="25"  viewBox="0 0 111.875 25"><g><path d="M10.08 24.938H8.17v-25l1.91 1.592zM4.03 24.938h1.91V4.782L4.03 6.375zM1.96 24.938H.049V11.153l1.91-1.593zM18.202 24.938H16.29V9.56l1.91 1.592zM12.31 24.938h1.911V6.375l-1.91-1.592z"/><path fill-rule="evenodd" d="M38.992 17.892v-.86h-2.124v.822c0 1.833.593 3.471 3.15 3.471s3.236-1.848 3.236-3.82c0-2.34-.628-3.233-2.678-4.775-1.204-.893-1.388-1.432-1.388-2.354s.162-1.528.873-1.528.872.602.872 1.557v.683h2.094v-.745c0-1.51-.444-3.343-2.918-3.343s-3.019 1.848-3.019 3.677c0 2.058.79 2.822 2.26 3.996 1.47 1.175 1.788 1.638 1.788 3.133 0 .902-.235 1.695-1.038 1.695s-1.108-.578-1.108-1.61m-12.35 3.232.476-3.715h2.115l.541 3.715h2.208l-2.29-13.9h-2.985l-2.207 13.9zm1.566-11.86c.157 1.57.454 3.81.768 6.173h-1.58l.136-1.019c.256-1.919.558-4.188.606-5.155zm26.83 11.86h-1.65a8 8 0 0 1-.113-1.04c-.38.926-1.178 1.246-2.06 1.246-2.015 0-2.665-1.48-2.665-3.82v-6.547c0-2.268.873-3.94 3.25-3.94 2.875 0 3.18 2.145 3.18 3.64v.448h-2.124v-.554c0-.735-.105-1.58-1.069-1.58-.772 0-1.1.54-1.1 1.652v7.11c0 1.113.32 1.69 1.083 1.69.916 0 1.138-.773 1.138-2.206v-2.03h-1.186v-1.842h3.315zm7.372 0 .48-3.715h2.099l.54 3.715h2.2l-2.291-13.9h-2.984l-2.181 13.9zm1.57-11.86c.158 1.57.455 3.81.769 6.173h-1.597l.135-1.019c.256-1.92.559-4.188.607-5.155zm10.972 5.648v6.208h-2.111V7.224h2.923c2.085 0 3.315.85 3.315 3.343v.53c0 2.134-.872 2.679-1.391 2.898.798.382 1.252.955 1.252 2.865a40 40 0 0 0 .126 4.27h-2.041c-.155-.722-.147-2.526-.142-3.654l.002-.477c0-1.695-.218-2.082-1.444-2.082zm0-1.771h.484c1.117 0 1.527-.43 1.527-1.94v-.477c0-1.074-.218-1.728-1.413-1.728h-.598zm12.726-5.917h-2.927v13.9h2.927c3.254 0 3.612-2.335 3.612-4.46v-5.328c0-2.584-.707-4.112-3.612-4.112M87.56 19.3h-.676V9.068h.663c1.396 0 1.614.82 1.614 2.096v5.792c0 1.437-.21 2.344-1.6 2.344M99.1 7.224v13.9h-2.112v-13.9zm7.32 13.9.48-3.715h2.107l.537 3.715h2.207l-2.29-13.9h-2.984l-2.208 13.9zm2.224-6.526.11.84h-1.588l.082-.613c.268-1.993.608-4.525.66-5.562h.078c.138 1.384.389 3.286.658 5.335"/></g></svg>