<svg xmlns="http://www.w3.org/2000/svg" width="100.125" height="25"  viewBox="0 0 100.125 25"><path fill="none" d="M0 0h100.125v25H0z"/><path  d="M96.959 2.303 100 22.697h-5.439l-.265-3.666h-1.905l-.316 3.666h-5.502l2.7-20.394zm-2.814 13.113q-.405-3.464-.808-8.553-.807 5.846-1.01 8.553zM85.91 2.303v20.394h-5.312V2.303zM78.736 8.475h-4.934V6.964q0-1.058-.19-1.348-.188-.29-.63-.29-.48 0-.732.39-.24.392-.24 1.185 0 1.02.278 1.537.264.516 1.501 1.247 3.546 2.104 4.468 3.451.92 1.348.92 4.346 0 2.179-.517 3.212-.504 1.033-1.968 1.738-1.464.693-3.407.693-2.133 0-3.647-.806-1.503-.807-1.969-2.053-.467-1.248-.467-3.54v-1.335h4.934v2.481q0 1.147.202 1.474.214.328.745.328.53 0 .782-.416.265-.416.265-1.235 0-1.8-.492-2.355-.505-.555-2.486-1.852-1.98-1.31-2.625-1.902-.643-.591-1.073-1.637-.416-1.045-.416-2.67 0-2.344.593-3.427.606-1.083 1.944-1.688 1.337-.617 3.23-.617 2.07 0 3.52.668 1.465.667 1.931 1.688.48 1.007.48 3.438zM65.744 14.245q0 3.073-.151 4.358a4.8 4.8 0 0 1-.909 2.33q-.757 1.058-2.057 1.625t-3.028.567q-1.64 0-2.953-.529-1.3-.542-2.095-1.612a4.8 4.8 0 0 1-.947-2.33q-.15-1.26-.15-4.41v-3.489q0-3.073.138-4.345a4.96 4.96 0 0 1 .909-2.343q.77-1.058 2.069-1.625 1.3-.567 3.029-.567 1.64 0 2.94.542 1.312.529 2.107 1.6.795 1.07.947 2.33.15 1.26.151 4.408zm-5.312-6.702q0-1.423-.165-1.814-.15-.402-.643-.403a.74.74 0 0 0-.644.328q-.214.315-.214 1.89v9.522q0 1.776.139 2.192.15.416.681.416.543 0 .694-.479.151-.48.151-2.28zM52.652 2.303v4.081h-3.155v16.313h-5.313V6.384h-3.142v-4.08zM40.152 2.303v13.63q0 2.317-.151 3.262-.152.932-.896 1.927-.745.982-1.969 1.5-1.21.503-2.864.503-1.83 0-3.23-.605-1.402-.605-2.096-1.574t-.82-2.04Q28 17.821 28 14.37V2.303h5.313v15.292q0 1.335.139 1.713.15.366.593.366.504 0 .643-.404.152-.415.152-1.94V2.304z"/><path  fill-rule="evenodd" d="M12.5 18.75a6.25 6.25 0 1 0 0-12.5 6.25 6.25 0 0 0 0 12.5m0 6.25C19.404 25 25 19.404 25 12.5S19.404 0 12.5 0 0 5.596 0 12.5 5.596 25 12.5 25"/></svg>